/* XPM */
static char *eb7a9e90957743e5ab068736b6972530zEYMpQW4emxZLmFP[] = {
/* columns rows colors chars-per-pixel */
"64 64 2 1 ",
"  c #3B190A",
". c #9C5A3C",
/* pixels */
"................................................................",
"................................................................",
"................................................................",
".............................    ...............................",
".............................    ...............................",
".............................    ...............................",
".............................    ...............................",
".............................    ...............................",
".............................    ...............................",
".............................    ...............................",
".............................    ...............................",
".............................    ...............................",
".............................    ...............................",
".............................    ...............................",
".............................    ...............................",
".............................    ...............................",
".............................    ...............................",
".............................    ...............................",
".............................    ...............................",
".............................    ...............................",
"...                                                         ....",
".........   ........................................   .........",
".........   ........................................   .........",
".........   ........................................   .........",
".........   ........................................   .........",
".........   ........................................   .........",
".........   ........................................   .........",
".........   ........................................   .........",
".........   ........................................   .........",
".........   ........................................   .........",
".........   ........................................   .........",
".........   ........................................   .........",
".........   ........................................   .........",
".........   ........................................   .........",
".........   ........................................   .........",
".........   ........................................   .........",
".........   ........................................   .........",
".........   ........................................   .........",
".........   ........................................   .........",
".........   ........................................   .........",
".........   ........................................   .........",
"...                                                          ...",
".............................    ...............................",
".............................    ...............................",
".............................    ...............................",
".............................    ...............................",
".............................    ...............................",
".............................    ...............................",
".............................    ...............................",
".............................    ...............................",
".............................    ...............................",
".............................    ...............................",
".............................    ...............................",
".............................    ...............................",
".............................    ...............................",
".............................    ...............................",
".............................    ...............................",
".............................    ...............................",
".............................    ...............................",
".............................    ...............................",
".............................    ...............................",
"................................................................",
"................................................................",
"................................................................"
};
