/* XPM */
static char *a5cde16d90ad401099f433411416a95dMv6P9Q7f7fFWXt1k[] = {
/* columns rows colors chars-per-pixel */
"64 64 6 1 ",
"  c black",
". c #ED1C24",
"X c #22B14C",
"o c #B4B4B4",
"O c #D3F9BC",
"+ c white",
/* pixels */
"OOOOOOOOOOOOOOOOOOOOOOOOOOOOOOOOOOOOOOOOOOOOOoOOOOOOOOOOOOOOOOOO",
"OXXXXXXXXXXXXXXXXXXXXXXXXXXXXXXXXXXXXXXXXXXXX.XXXXXXXXXXXXXXXXXO",
"OXOOOOOOOOOOOOOOOOOOOOOOOOOOOOOOOOOOOOOOOOOOo.oOOOOOOOOOOOOOOOXO",
"OXOOOOOOOOOOOOOOOOOOOOOOOOOoooooooooOOOOOOOOo.oOOOOOOOOOOOOOOOXO",
"OXOOOOOOOOOOOOOOOOOOOOOOooo.........oooOOOOOo.oOOOOOOOOOOOOOOOXO",
"OXOOOOOOOOOOOOOOOOOOOOoo...............ooOOOo.oOOOOOOOOOOOOOOOXO",
"OXOOOOOOOOOOOOOOOOOOoo...................ooOo.oOOOOOOOOOOOOOOOXO",
"OXOOOOOOOOOOOOOOOOOo.......................oo.oOOOOOOOOOOOOOOOXO",
"OXOOOOOOOOOOOOOOOOo.........................o.oOOOOOOOOOOOOOOOXO",
"OXOOOOOOOOOOOOOOOo..........................o.oOOOOOOOOOOOOOOOXO",
"OXOOOOOOOOOOOOOOo...........................o.oOOOOOOOOOOOOOOOXO",
"OXOOOOOOOOOOOOOo............................o.ooOOOOOOOOOOOOOOXO",
"OXOOOOOOOOOOOOo.............................o.o.oOOOOOOOOOOOOOXO",
"OXOOOOOOOOOOOo...................................oOOOOOOOOOOOOXO",
"OXOOOOOOOOOOOo...................................oOOOOOOOOOOOOXO",
"OXOOOOOOOOOOo.....................................oOOOOOOOOOOOXO",
"OXOOOOOOOOOOo.....................................oOOOOOOOOOOOXO",
"OXOOOOOOOOOo.......................................oOOOOOOOOOOXO",
"OXOOOOOOOOOo.......................................oOOOOOOOOOOXO",
"OXOOOOOOOOo.........................................oOOOOOOOOOXO",
"OXOOOOOOOOo.........................................oOOOOOOOOOXO",
"OXOOOOOOOOo.........................................oOOOOOOOOOXO",
"OXOOOOOOOo..................ooooooooo................oOOOOOOOOXO",
"OXOOOOOOOo..............ooooooooooooooooo............oOOOOOOOOXO",
"OXOOOOOOOo............ooooooooooooooooooooo..........oOOOOOOOOXO",
"OXOOOOOOOo...........ooooooooooooooooooooooo.........oOOOOOOOOXO",
"OXOOOOOOo...........ooooooooooooooooooo+ooooo.........oOOOOOOOXO",
"OXOOOOOOo..........ooooooooooooooooooooooooooo........oOOOOOOOXO",
"OXOOOOOOo.........oooooooooooo     oooooooooooo.......oOOOOOOOXO",
"OXOOOOOOo.........oooooooooo         oooooooooo.......oOOOOOOOXO",
"OXOOOOOOo.........ooooooooo           ooooooooo.......oOOOOOOOXO",
"OXOOOOOOo.........ooooooooo     X     ooooooooo.......oOOOOOOOXO",
"OXOOOOOOo.........ooooooooo           ooooooooo.......oOOOOOOOXO",
"OXOOOOOOo..........ooooooooo         ooooooooo........oOOOOOOOXO",
"OXOOOOOOo...........oooooooooo     oooooooooo.........oOOOOOOOXO",
"OXOOOOOOo............ooooooooooooooooooooooo..........oOOOOOOOXO",
"OXOOOOOOo.............ooooooooooooooooooooo...........oOOOOOOOXO",
"OXOOOOOOOo..............ooooooooooooooooo............oOOOOOOOOXO",
"OXOOOOOOOo..................ooooooooo................oOOOOOOOOXO",
"OXOOOOOOOo...........................................oOOOOOOOOXO",
"OXOOOOOOOo...........................................oOOOOOOOOXO",
"OXOOOOOOOOo.........................................oOOOOOOOOOXO",
"OXOOOOOOOOo.........................................oOOOOOOOOOXO",
"OXOOOOOOOOo.........................................oOOOOOOOOOXO",
"OXOOOOOOOOOo.......................................oOOOOOOOOOOXO",
"OXOOOOOOOOOo.......................................oOOOOOOOOOOXO",
"OXOOOOOOOOOOo.....................................oOOOOOOOOOOOXO",
"OXOOOOOOOOOOo.....................................oOOOOOOOOOOOXO",
"OXOOOOOOOOOOOo...................................oOOOOOOOOOOOOXO",
"OXOOOOOOOOOOOo...................................oOOOOOOOOOOOOXO",
"OXOOOOOOOOOOOOo.................................oOOOOOOOOOOOOOXO",
"OXOOOOOOOOOOOOOo...............................oOOOOOOOOOOOOOOXO",
"OXOOOOOOOOOOOOOOo.............................oOOOOOOOOOOOOOOOXO",
"OXOOOOOOOOOOOOOOOo...........................oOOOOOOOOOOOOOOOOXO",
"OXOOOOOOOOOOOOOOOOo.........................oOOOOOOOOOOOOOOOOOXO",
"OXOOOOOOOOOOOOOOOOOo.......................oOOOOOOOOOOOOOOOOOOXO",
"OXOOOOOOOOOOOOOOOOOOoo...................ooOOOOOOOOOOOOOOOOOOOXO",
"OXOOOOOOOOOOOOOOOOOOOOoo...............ooOOOOOOOOOOOOOOOOOOOOOXO",
"OXOOOOOOOOOOOOOOOOOOOOOOooo.........oooOOOOOOOOOOOOOOOOOOOOOOOXO",
"OXOOOOOOOOOOOOOOOOOOOOOOOOOoooooooooOOOOOOOOOOOOOOOOOOOOOOOOOOXO",
"OXOOOOOOOOOOOOOOOOOOOOOOOOOOOOOOOOOOOOOOOOOOOOOOOOOOOOOOOOOOOOXO",
"OXOOOOOOOOOOOOOOOOOOOOOOOOOOOOOOOOOOOOOOOOOOOOOOOOOOOOOOOOOOOOXO",
"OXXXXXXXXXXXXXXXXXXXXXXXXXXXXXXXXXXXXXXXXXXXXXXXXXXXXXXXXXXXXXXO",
"OOOOOOOOOOOOOOOOOOOOOOOOOOOOOOOOOOOOOOOOOOOOOOOOOOOOOOOOOOOOOOOO"
};
