/* XPM */
static char *_17187c96b2c4ea6b5c72c51e9310bcc8p1S70xPj8nVxs7p[] = {
/* columns rows colors chars-per-pixel */
"64 64 6 1 ",
"  c #FF7E00",
". c #22B14C",
"X c #A8E61D",
"o c #FFC20E",
"O c #FFF200",
"+ c #D3F9BC",
/* pixels */
"++++++++++++++++++++++++++++++++++++++++++++++++++++++++++++++++",
"+..............................................................+",
"+.++++++++++++++++++++++++++++++++++++++++++++++++++++++++++++.+",
"+.++++++++++++++++++++++++++++++++++++++++++++++++++++++++++++.+",
"+.++++++++++++++++++++++++++++++++++++++++++++++++++++++++++++.+",
"+.++++++++++++++++++++++++++++++++++++++++++++++++++++++++++++.+",
"+.++++++++++++++++++++++++++++++++++++++++++++++++++++++++++++.+",
"+.++++++++++++++++++++++++++++++++++++++++++++++++++++++++++++.+",
"+.++++++++++++++++++++++++++++++++++++++++++++++++++++++++++++.+",
"+.++++++++++++++++++++++++++++++++++++++++++++++++++++++++++++.+",
"+.++++++++++++++++++++++++++++++++++++++++++++++++++++++++++++.+",
"+.++++++++++++++++++++++++++++++++++++++++++++++++++++++++++++.+",
"+.++++++++++++++++++++++++++++++++++++++++++++++++++++++++++++.+",
"+.++++++++++++++++++++++++++++++++++++++++++++++++++++++++++++.+",
"+.++++++++++++++++++++++++++++++++++++++++++++++++++++++++++++.+",
"+.++++++++++++++++++++++++++++++++++++++++++++++++++++++++++++.+",
"+.++++++++++++++++++++++++++++++++++++++++++++++++++++++++++++.+",
"+.++++++++++++++++++++++++++++++++++++++++++++++++++++++++++++.+",
"+.++++++++++++++++++++++++++++++++++++++++++++++++++++++++++++.+",
"+.++++++++++++++XXXXXXXXXXXXXXXXXXXXXXXXXXXXXXX+++++++++++++++.+",
"+.++++++++++++++X+++++++++++++++++++++++++++++X+++++++++++++++.+",
"+.++++++++++++++X+++++++++++ooooooo+++++++++++X+++++++++++++++.+",
"+.++++++++++++++X++++++++oooOOOOOOOooo++++++++X+++++++++++++++.+",
"+.++++++++++++++X+++++++oOOOOOOOOOOOOOo+++++++X+++++++++++++++.+",
"+.++++++++++++++X+++++ooOOOOOOOOOOOOOOOoo+++++X+++++++++++++++.+",
"+.++++++++++++++X++++oOOOOOOOOOOOOOOOOOOOo++++X+++++++++++++++.+",
"+.++++++++++++++X+++oOOOOOOOOOOOOOOOOOOOOOo+++X+++++++++++++++.+",
"+.++++++++++++++X+++oOOOOOOOOOOOOOOOOOOOOOo+++X+++++++++++++++.+",
"+.++++++++++++++X++oOOOOOOOOOOOOOOOOOOOOOOOo++X+++++++++++++++.+",
"+.++++++++++++++X++oOOOOOOOOOOOOOOOOOOOOOOOo++X+++++++++++++++.+",
"+.++++++++++++++X+oOOOOOOOOOOO   OOOOOOOOOOOo+X+++++++++++++++.+",
"+.++++++++++++++X+oOOOOOOOOO  OOO  OOOOOOOOOo+X+++++++++++++++.+",
"+.++++++++++++++X+oOOOOOOOOO OOOOO OOOOOOOOOo+X+++++++++++++++.+",
"+.++++++++++++++X+oOOOOOOOO OOOOOOO OOOOOOOOo+X+++++++++++++++.+",
"+.++++++++++++++X+oOOOOOOOO OOOOOOO OOOOOOOOo+X+++++++++++++++.+",
"+.++++++++++++++X+oOOOOOOOO OOOOOOO OOOOOOOOo+X+++++++++++++++.+",
"+.++++++++++++++X+oOOOOOOOOO OOOOO OOOOOOOOOo+X+++++++++++++++.+",
"+.++++++++++++++X++oOOOOOOOO  OOO  OOOOOOOOo++X+++++++++++++++.+",
"+.++++++++++++++X++oOOOOOOOOOO   OOOOOOOOOOo++X+++++++++++++++.+",
"+.++++++++++++++X+++oOOOOOOOOOOOOOOOOOOOOOo+++X+++++++++++++++.+",
"+.++++++++++++++X+++oOOOOOOOOOOOOOOOOOOOOOo+++X+++++++++++++++.+",
"+.++++++++++++++X++++oOOOOOOOOOOOOOOOOOOOo++++X+++++++++++++++.+",
"+.++++++++++++++X+++++ooOOOOOOOOOOOOOOOoo+++++X+++++++++++++++.+",
"+.++++++++++++++X+++++++oOOOOOOOOOOOOOo+++++++X+++++++++++++++.+",
"+.++++++++++++++X++++++++oooOOOOOOOooo++++++++X+++++++++++++++.+",
"+.++++++++++++++X+++++++++++ooooooo+++++++++++X+++++++++++++++.+",
"+.++++++++++++++X+++++++++++++++++++++++++++++X+++++++++++++++.+",
"+.++++++++++++++XXXXXXXXXXXXXXXXXXXXXXXXXXXXXXX+++++++++++++++.+",
"+.++++++++++++++++++++++++++++++++++++++++++++++++++++++++++++.+",
"+.++++++++++++++++++++++++++++++++++++++++++++++++++++++++++++.+",
"+.++++++++++++++++++++++++++++++++++++++++++++++++++++++++++++.+",
"+.++++++++++++++++++++++++++++++++++++++++++++++++++++++++++++.+",
"+.++++++++++++++++++++++++++++++++++++++++++++++++++++++++++++.+",
"+.++++++++++++++++++++++++++++++++++++++++++++++++++++++++++++.+",
"+.++++++++++++++++++++++++++++++++++++++++++++++++++++++++++++.+",
"+.++++++++++++++++++++++++++++++++++++++++++++++++++++++++++++.+",
"+.++++++++++++++++++++++++++++++++++++++++++++++++++++++++++++.+",
"+.++++++++++++++++++++++++++++++++++++++++++++++++++++++++++++.+",
"+.++++++++++++++++++++++++++++++++++++++++++++++++++++++++++++.+",
"+.++++++++++++++++++++++++++++++++++++++++++++++++++++++++++++.+",
"+.++++++++++++++++++++++++++++++++++++++++++++++++++++++++++++.+",
"+.++++++++++++++++++++++++++++++++++++++++++++++++++++++++++++.+",
"+..............................................................+",
"++++++++++++++++++++++++++++++++++++++++++++++++++++++++++++++++"
};
