/* XPM */
static char *e5f7de7b2267490aadf1f7946506912eQTwXaMPrD7cYAzjz[] = {
/* columns rows colors chars-per-pixel */
"64 64 5 1 ",
"  c #3B190A",
". c #22B14C",
"X c #A8E61D",
"o c #FFC20E",
"O c #D3F9BC",
/* pixels */
"OOOOOOOOOOOOOOOOOOOOOOOOOOOOOOOOOOOOOOOOOOOOOOOOOOOOOOOOOOOOOOOO",
"O..............................................................O",
"O.OOOOOOOOOOOOOOOOOOOOOOOOOOO     OOOOOOOOOOOOOOOOOOOOOOOOOOOO.O",
"O.OOOOOOOOOOOOOOOOOOOOOOOOO         OOOOOOOOOOOOOOOOOOOOOOOOOO.O",
"O.OOOOOOOOOOOOOOOOOOOOOOOO           OOOOOOOOOOOOOOOOOOOOOOOOO.O",
"O.OOOOOOOOOOOOOOOOOOOOOO               OOOOOOOOOOOOOOOOOOOOOOO.O",
"O.OOOOOOOOOOOOOOOOOOOOOO               OOOOOOOOOOOOOOOOOOOOOOO.O",
"O.OOOOOOOOOOOOOOOOOOOOO                 OOOOOOOOOOOOOOOOOOOOOO.O",
"O.OOOOOOOOOOOOOOOOOOOO                   OOOOOOOOOOOOOOOOOOOOO.O",
"O.OOOOOOOOOOOOOOOOOOO                     OOOOOOOOOOOOOOOOOOOO.O",
"O.OOOOOOOOOOOOOOOOOOO                     OOOOOOOOOOOOOOOOOOOO.O",
"O.OOOOOOOOOOOOOOOOOO                       OOOOOOOOOOOOOOOOOOO.O",
"O.OOOOOOOOOOOOOOOOOO                       OOOOOOOOOOOOOOOOOOO.O",
"O.OOOOOOOOOOOOOOOOOO                       OOOOOOOOOOOOOOOOOOO.O",
"O.OOOOOOOOOOOOOOOOO                         OOOOOOOOOOOOOOOOOO.O",
"O.OOOOOOOOOOOOOOOOO                         OOOOOOOOOOOOOOOOOO.O",
"O.OOOOOOOOOOOOOOOOO                         OOOOOOOOOOOOOOOOOO.O",
"O.OOOOOOOOOOOOOOOO                           OOOOOOOOOOOOOOOOO.O",
"O.OOOOOOOOOOOOOOOO                           OOOOOOOOOOOOOOOOO.O",
"O.OOOOOOOOOOOOOOXX                           XXOOOOOOOOOOOOOOO.O",
"O.OOOOOOOOOOOOOOX                             XOOOOOOOOOOOOOOO.O",
"O.OOOOOOOOOOOOOOX                             XOOOOOOOOOOOOOOO.O",
"O.OOOOOOOOOOOOOOX                             XOOOOOOOOOOOOOOO.O",
"O.OOOOOOOOOOOOOOX                             XOOOOOOOOOOOOOOO.O",
"O.OOOOOOOOOOOOOOX                             XOOOOOOOOOOOOOOO.O",
"O.OOOOOOOOOOOOOOX                             XOOOOOOOOOOOOOOO.O",
"O.OOOOOOOOOOOOOOX                             XOOOOOOOOOOOOOOO.O",
"O.OOOOOOOOOOOOOOX                             XOOOOOOOOOOOOOOO.O",
"O.OOOOOOOOOOOOOOX                             XOOOOOOOOOOOOOOO.O",
"O.OOOOOOOOOOOOOOX                             XOOOOOOOOOOOOOOO.O",
"O.OOOOOOOOOOOOOOX                             XOOOOOOOOOOOOOOO.O",
"O.OOOOOOOOOOOOOOX                             XOOOOOOOOOOOOOOO.O",
"O.OOOOOOOOOOOOOOX                             XOOOOOOOOOOOOOOO.O",
"O.OOOOOOOOOOOOOOX                       oooo  XOOOOOOOOOOOOOOO.O",
"O.OOOOOOOOOOOOOOX                       o  o  XOOOOOOOOOOOOOOO.O",
"O.OOOOOOOOOOOOOOX                       o  o  XOOOOOOOOOOOOOOO.O",
"O.OOOOOOOOOOOOOOX                       oooo  XOOOOOOOOOOOOOOO.O",
"O.OOOOOOOOOOOOOOX                             XOOOOOOOOOOOOOOO.O",
"O.OOOOOOOOOOOOOOX                             XOOOOOOOOOOOOOOO.O",
"O.OOOOOOOOOOOOOOX                             XOOOOOOOOOOOOOOO.O",
"O.OOOOOOOOOOOOOOX                             XOOOOOOOOOOOOOOO.O",
"O.OOOOOOOOOOOOOOX                             XOOOOOOOOOOOOOOO.O",
"O.OOOOOOOOOOOOOOX                             XOOOOOOOOOOOOOOO.O",
"O.OOOOOOOOOOOOOOX                             XOOOOOOOOOOOOOOO.O",
"O.OOOOOOOOOOOOOOX                             XOOOOOOOOOOOOOOO.O",
"O.OOOOOOOOOOOOOOX                             XOOOOOOOOOOOOOOO.O",
"O.OOOOOOOOOOOOOOX                             XOOOOOOOOOOOOOOO.O",
"O.OOOOOOOOOOOOOOX                             XOOOOOOOOOOOOOOO.O",
"O.OOOOOOOOOOOOOOO                             OOOOOOOOOOOOOOOO.O",
"O.OOOOOOOOOOOOOOO                             OOOOOOOOOOOOOOOO.O",
"O.OOOOOOOOOOOOOOO                             OOOOOOOOOOOOOOOO.O",
"O.OOOOOOOOOOOOOOO                             OOOOOOOOOOOOOOOO.O",
"O.OOOOOOOOOOOOOOO                             OOOOOOOOOOOOOOOO.O",
"O.OOOOOOOOOOOOOOO                             OOOOOOOOOOOOOOOO.O",
"O.OOOOOOOOOOOOOOO                             OOOOOOOOOOOOOOOO.O",
"O.OOOOOOOOOOOOOOOOOOOOOOOOOOOOOOOOOOOOOOOOOOOOOOOOOOOOOOOOOOOO.O",
"O.OOOOOOOOOOOOOOOOOOOOOOOOOOOOOOOOOOOOOOOOOOOOOOOOOOOOOOOOOOOO.O",
"O.OOOOOOOOOOOOOOOOOOOOOOOOOOOOOOOOOOOOOOOOOOOOOOOOOOOOOOOOOOOO.O",
"O.OOOOOOOOOOOOOOOOOOOOOOOOOOOOOOOOOOOOOOOOOOOOOOOOOOOOOOOOOOOO.O",
"O.OOOOOOOOOOOOOOOOOOOOOOOOOOOOOOOOOOOOOOOOOOOOOOOOOOOOOOOOOOOO.O",
"O.OOOOOOOOOOOOOOOOOOOOOOOOOOOOOOOOOOOOOOOOOOOOOOOOOOOOOOOOOOOO.O",
"O.OOOOOOOOOOOOOOOOOOOOOOOOOOOOOOOOOOOOOOOOOOOOOOOOOOOOOOOOOOOO.O",
"O..............................................................O",
"OOOOOOOOOOOOOOOOOOOOOOOOOOOOOOOOOOOOOOOOOOOOOOOOOOOOOOOOOOOOOOOO"
};
